<?xml version="1.0" standalone="no"?>
<!DOCTYPE svg PUBLIC "-//W3C//DTD SVG 20010904//EN"
 "http://www.w3.org/TR/2001/REC-SVG-20010904/DTD/svg10.dtd">
<svg version="1.0" xmlns="http://www.w3.org/2000/svg"
 width="351.000000pt" height="351.000000pt" viewBox="0 0 351.000000 351.000000"
 preserveAspectRatio="xMidYMid meet">

<g transform="translate(0.000000,351.000000) scale(0.100000,-0.100000)"
fill="#000000" stroke="none">
<path d="M1540 2871 c-242 -52 -496 -201 -645 -380 -205 -245 -298 -516 -282
-821 29 -538 406 -972 934 -1077 120 -23 339 -23 451 1 391 84 707 345 847
699 123 316 111 654 -36 950 -159 320 -481 565 -829 631 -113 22 -329 20 -440
-3z m397 -76 c340 -55 652 -292 804 -610 173 -363 129 -788 -115 -1104 -209
-270 -516 -421 -855 -421 -126 0 -206 12 -321 46 -349 106 -617 383 -718 744
-25 87 -27 110 -27 280 0 163 3 195 24 270 148 535 675 882 1208 795z"/>
<path d="M1602 2729 c-122 -21 -286 -91 -407 -172 -33 -22 -94 -75 -136 -116
-432 -433 -385 -1144 101 -1513 89 -68 245 -143 365 -175 87 -23 119 -26 245
-26 123 0 159 4 242 26 366 97 640 368 735 725 36 134 38 354 6 482 -75 296
-272 538 -555 681 -135 68 -231 91 -398 95 -80 1 -169 -1 -198 -7z m239 -88
c39 -40 41 -97 3 -135 -15 -14 -31 -26 -35 -26 -5 0 -9 -6 -9 -14 0 -8 16 -20
36 -26 45 -15 98 -61 114 -100 8 -19 24 -34 46 -42 31 -11 34 -16 34 -50 0
-24 -5 -38 -12 -38 -7 0 -66 25 -130 57 l-118 57 -121 -57 c-67 -31 -125 -54
-130 -51 -5 3 -9 20 -9 38 0 28 5 34 35 45 24 8 40 23 49 45 17 41 66 82 116
97 48 15 50 27 8 54 -83 52 -46 175 52 175 33 0 48 -6 71 -29z m-261 -66 c0
-14 -59 -45 -86 -45 -28 0 -13 28 24 43 47 20 62 21 62 2z m464 -12 c20 -11
25 -18 17 -26 -7 -7 -22 -7 -51 3 -44 15 -55 24 -45 40 7 12 34 6 79 -17z
m141 -69 c26 -17 25 -37 0 -27 -11 4 -13 1 -9 -11 5 -12 0 -16 -17 -16 -22 0
-22 -1 -4 -13 28 -21 1 -31 -29 -12 l-25 17 26 39 c14 21 27 39 30 39 2 0 15
-7 28 -16z m-765 -8 c16 -21 9 -56 -16 -73 -19 -12 -23 -11 -47 26 -25 37 -25
41 -9 50 25 15 58 13 72 -3z m-225 -96 c0 -18 -72 -27 -87 -12 -19 19 3 33 45
30 29 -2 42 -8 42 -18z m1240 0 c0 -10 -13 -16 -42 -18 -38 -3 -43 -1 -43 18
0 19 5 21 43 18 29 -2 42 -8 42 -18z m-1239 -101 c10 -17 -16 -29 -68 -29 -56
0 -78 7 -78 26 0 18 135 20 146 3z m1292 -6 c-3 -15 -14 -18 -68 -18 -54 0
-65 3 -68 18 -3 15 5 17 68 17 63 0 71 -2 68 -17z m-1048 -37 c0 -8 -35 -30
-77 -51 l-78 -36 60 -32 c81 -43 161 -125 197 -202 147 -315 -87 -644 -459
-645 l-73 0 0 450 0 450 119 0 c117 0 120 1 207 40 100 44 104 45 104 26z
m766 -32 c73 -33 79 -34 205 -34 l129 0 0 -450 0 -450 -70 0 -70 0 -2 342 -3
343 -47 -68 -48 -68 0 -274 0 -275 -70 0 -70 0 -2 221 -3 221 -79 -116 c-44
-64 -85 -121 -92 -126 -8 -7 -37 11 -98 61 l-86 70 0 -165 0 -166 -76 0 -75 0
3 300 c2 165 5 300 8 300 12 0 195 -109 241 -143 l48 -36 132 182 c73 100 145
200 161 222 l28 40 -62 32 c-35 18 -68 32 -73 33 -6 0 -16 -19 -23 -41 -33
-107 -136 -198 -251 -224 -27 -6 -31 -4 -31 14 0 12 4 21 10 21 32 0 125 47
160 81 46 45 90 129 90 172 0 33 2 33 116 -19z m-255 -114 c-21 -18 -39 -20
-187 -20 -157 0 -164 1 -164 20 0 19 7 20 188 20 l187 -1 -24 -19z m-1064
-246 c3 -8 1 -20 -6 -27 -14 -14 -47 15 -37 32 10 16 36 13 43 -5z m1 -197 c4
-21 -25 -34 -40 -19 -8 8 -8 16 2 27 16 19 34 15 38 -8z m310 -514 c-3 -15
-16 -18 -81 -21 -72 -3 -77 -1 -77 18 0 18 6 20 81 20 71 0 80 -2 77 -17z
m1315 10 c4 -3 2 -12 -4 -20 -8 -8 -35 -13 -80 -13 -65 0 -87 9 -74 30 7 11
148 14 158 3z m-699 -27 c82 -34 103 -127 43 -192 -28 -31 -41 -37 -83 -41
-147 -13 -204 163 -73 229 41 22 69 22 113 4z m-416 -18 c18 -16 -5 -39 -36
-36 -32 4 -40 -18 -10 -27 82 -25 77 -129 -6 -129 -45 0 -75 26 -57 48 10 11
18 13 31 6 26 -14 40 -12 40 5 0 8 -11 17 -25 21 -56 14 -72 79 -28 114 28 22
63 21 91 -2z m192 -8 c0 -13 -7 -20 -20 -20 -18 0 -20 -7 -20 -80 0 -79 0 -80
-25 -80 -25 0 -25 1 -25 80 0 73 -2 80 -20 80 -13 0 -20 7 -20 20 0 18 7 20
65 20 58 0 65 -2 65 -20z m459 10 c10 -5 24 -23 31 -40 12 -28 11 -34 -9 -60
-25 -35 -26 -43 -6 -60 22 -18 18 -30 -9 -30 -15 0 -32 11 -45 28 l-20 27 -1
-27 c0 -23 -4 -28 -25 -28 l-25 0 0 100 0 100 46 0 c25 0 53 -4 63 -10z m211
-10 c0 -16 -7 -20 -35 -20 -24 0 -35 -5 -35 -15 0 -9 9 -15 25 -15 20 0 25 -5
25 -25 0 -20 -5 -25 -25 -25 -18 0 -25 -5 -25 -20 0 -16 7 -20 35 -20 28 0 35
-4 35 -20 0 -18 -7 -20 -60 -20 l-60 0 0 100 0 100 60 0 c53 0 60 -2 60 -20z
m-1060 -40 c0 -5 -9 -10 -21 -10 -11 0 -17 5 -14 10 3 6 13 10 21 10 8 0 14
-4 14 -10z m1180 0 c0 -5 -9 -10 -20 -10 -11 0 -20 5 -20 10 0 6 9 10 20 10
11 0 20 -4 20 -10z"/>
<path d="M1742 2614 c-12 -8 -22 -26 -22 -39 0 -52 65 -74 94 -33 21 30 20 44
-4 68 -24 24 -38 25 -68 4z"/>
<path d="M1370 2466 c0 -18 17 -29 30 -21 8 5 7 11 -1 21 -15 18 -29 18 -29 0z"/>
<path d="M1160 1730 l0 -290 23 0 c65 1 171 77 213 153 26 46 29 62 29 137 0
71 -4 93 -25 134 -31 61 -97 120 -157 140 -90 31 -83 54 -83 -274z"/>
<path d="M1706 1069 c-55 -44 -19 -129 55 -129 72 0 107 86 53 129 -15 12 -39
21 -54 21 -15 0 -39 -9 -54 -21z m79 -54 c0 -22 -31 -33 -47 -17 -17 17 -1 44
24 40 15 -2 23 -10 23 -23z"/>
<path d="M1990 1050 c0 -23 4 -30 20 -30 25 0 28 45 4 54 -23 9 -24 8 -24 -24z"/>
</g>
</svg>
