<?xml version="1.0" standalone="no"?>
<!DOCTYPE svg PUBLIC "-//W3C//DTD SVG 20010904//EN"
 "http://www.w3.org/TR/2001/REC-SVG-20010904/DTD/svg10.dtd">
<svg version="1.0" xmlns="http://www.w3.org/2000/svg"
 width="225.000000pt" height="225.000000pt" viewBox="0 0 225.000000 225.000000"
 preserveAspectRatio="xMidYMid meet">

<g transform="translate(0.000000,225.000000) scale(0.100000,-0.100000)"
fill="#000000" stroke="none">
<path d="M0 1125 l0 -1125 1125 0 1125 0 0 1125 0 1125 -1125 0 -1125 0 0
-1125z m820 40 c0 -183 -4 -285 -10 -285 -6 0 -10 99 -10 278 0 246 3 292 17
292 2 0 3 -128 3 -285z m-522 212 c32 -15 63 -57 62 -83 0 -10 0 -30 0 -44 1
-14 3 -67 5 -118 2 -50 -1 -94 -6 -97 -4 -3 -6 -12 -3 -19 3 -8 1 -17 -5 -21
-6 -3 -11 -15 -11 -26 0 -16 -6 -19 -27 -17 -18 2 -27 -1 -25 -9 3 -18 -13
-16 -28 2 -7 8 -22 15 -34 14 -11 0 -36 3 -55 7 -33 6 -34 6 -27 -20 5 -19 3
-26 -9 -26 -8 0 -15 9 -15 19 0 11 -4 21 -10 23 -10 3 -15 165 -7 273 4 53 2
74 -10 87 -8 9 -13 27 -11 40 2 18 11 24 38 28 53 8 150 1 178 -13z m197 13
c33 -13 56 -66 64 -150 6 -67 25 -83 27 -23 1 18 6 38 11 45 10 13 21 56 27
108 3 24 6 25 72 25 63 0 69 -2 66 -20 -1 -11 3 -37 9 -57 9 -28 9 -41 1 -51
-8 -9 -10 -60 -8 -155 3 -106 1 -146 -9 -159 -11 -14 -16 -16 -26 -5 -24 23
-39 14 -39 -23 0 -19 -4 -35 -9 -35 -12 0 -20 92 -16 191 2 47 -1 92 -6 100
-6 10 -9 8 -9 -11 0 -14 -10 -59 -22 -100 -11 -41 -23 -92 -25 -112 -5 -39
-23 -53 -23 -19 0 10 -9 21 -20 24 -16 4 -20 14 -20 50 0 31 -6 49 -20 62 -16
14 -19 26 -14 56 6 33 4 39 -11 39 -17 0 -18 -9 -12 -100 6 -95 5 -100 -13
-100 -17 0 -20 -7 -20 -45 0 -25 -4 -45 -10 -45 -5 0 -10 18 -10 40 0 29 -3
38 -14 34 -11 -4 -14 9 -14 63 -1 37 -2 102 -3 143 -2 41 -2 112 -1 158 l2 82
34 0 c19 0 46 -4 61 -10z m511 -14 c26 -20 7 -40 -27 -28 -32 13 -67 -2 -79
-33 -20 -53 27 -103 79 -83 34 12 53 -8 27 -28 -59 -43 -146 9 -146 86 0 77
87 129 146 86z m84 -65 l0 -80 37 -3 c27 -2 39 -8 41 -20 3 -15 -5 -18 -52
-18 l-56 0 0 100 c0 82 3 100 15 100 12 0 15 -15 15 -79z m249 53 c27 -22 31
-32 31 -74 0 -42 -4 -52 -31 -74 -67 -56 -159 -13 -159 74 0 87 92 130 159 74z
m171 11 c0 -8 -9 -15 -20 -15 -18 0 -20 -7 -20 -86 0 -76 -2 -85 -17 -82 -15
3 -18 16 -21 86 -3 74 -5 82 -22 82 -11 0 -20 7 -20 15 0 12 13 15 60 15 47 0
60 -3 60 -15z m60 -25 l0 -40 40 0 40 0 0 40 c0 33 3 40 20 40 19 0 20 -7 20
-100 0 -93 -1 -100 -20 -100 -17 0 -20 7 -20 40 l0 40 -40 0 -40 0 0 -40 c0
-29 -4 -40 -15 -40 -12 0 -15 18 -15 100 0 82 3 100 15 100 11 0 15 -11 15
-40z m190 -60 c0 -82 -3 -100 -15 -100 -12 0 -15 18 -15 100 0 82 3 100 15
100 12 0 15 -18 15 -100z m127 33 l48 -68 3 68 c2 51 6 67 17 67 12 0 15 -19
15 -100 0 -89 -2 -100 -17 -100 -11 0 -37 28 -63 67 l-45 66 -3 -67 c-2 -50
-6 -66 -17 -66 -12 0 -15 19 -15 100 0 123 9 127 77 33z m269 53 c26 -20 7
-40 -27 -28 -50 19 -99 -27 -85 -81 7 -30 51 -48 84 -36 31 12 29 39 -3 39
-16 0 -25 6 -25 15 0 11 12 15 45 15 l45 0 0 -55 c0 -42 -3 -55 -15 -55 -8 0
-15 4 -15 9 0 5 -12 5 -28 -1 -97 -37 -167 88 -93 163 33 33 84 39 117 15z
m-1198 -252 c40 -28 24 -58 -17 -32 -22 13 -54 4 -49 -15 3 -6 19 -17 37 -23
51 -17 68 -65 35 -98 -31 -32 -104 -11 -104 30 0 19 29 18 36 -1 7 -16 39 -20
48 -6 10 15 -5 41 -23 41 -31 0 -61 30 -61 60 0 30 30 60 60 60 9 0 26 -7 38
-16z m160 -6 c2 -13 -3 -18 -17 -18 -20 0 -21 -6 -21 -80 0 -73 -2 -80 -20
-80 -18 0 -20 7 -20 80 0 73 -2 80 -20 80 -13 0 -20 7 -20 20 0 19 5 21 57 18
46 -2 59 -7 61 -20z m161 8 c55 -29 67 -105 25 -155 -21 -25 -33 -31 -66 -31
-52 0 -77 14 -94 56 -38 90 49 174 135 130z m201 -11 c25 -23 25 -50 1 -74
-18 -18 -18 -20 0 -60 18 -40 18 -41 -2 -41 -13 0 -24 12 -35 40 -9 22 -22 40
-30 40 -10 0 -14 -12 -14 -40 0 -33 -3 -40 -20 -40 -19 0 -20 7 -20 93 0 52 3
97 8 101 12 13 92 -1 112 -19z m183 19 c16 -17 -8 -34 -49 -34 -40 0 -44 -2
-44 -25 0 -22 4 -25 40 -25 29 0 40 -4 40 -15 0 -11 -11 -15 -40 -15 -36 0
-40 -2 -40 -25 0 -23 3 -25 48 -25 37 0 49 -4 49 -15 0 -12 -15 -15 -69 -15
l-68 0 0 93 c0 52 3 97 7 100 8 9 117 9 126 1z m452 -79 c-7 -82 -6 -85 15
-85 12 0 18 -4 15 -10 -10 -16 -68 -11 -101 9 -26 16 -35 17 -50 7 -11 -7 -35
-13 -56 -14 -29 -2 -40 3 -58 25 l-22 28 7 -28 c8 -32 -9 -36 -54 -12 -26 13
-30 13 -41 0 -7 -8 -19 -15 -27 -15 -10 0 -1 16 25 44 45 48 67 85 57 94 -3 3
-17 -7 -30 -23 -13 -17 -27 -27 -31 -22 -8 8 54 77 69 77 5 0 11 -9 14 -20 5
-17 7 -18 25 -6 25 18 71 4 93 -26 13 -20 15 -20 50 17 33 36 37 37 52 22 15
-15 14 -20 -14 -65 l-31 -50 24 -11 c19 -8 24 -8 24 4 0 9 -6 12 -15 9 -11 -4
-13 -2 -9 9 8 23 34 29 35 9 1 -9 4 -1 8 18 3 19 3 36 0 38 -8 3 19 62 28 62
3 0 2 -38 -2 -85z m-1590 -260 c0 -29 -35 -32 -42 -4 -5 19 -7 20 -12 6 -6
-16 -7 -15 -18 2 -10 17 -8 18 30 17 35 -1 42 -4 42 -21z m34 3 c1 16 7 22 25
22 29 0 38 -11 25 -30 -5 -8 -9 -10 -9 -5 0 6 -5 3 -10 -5 -9 -13 -10 -13 -10
0 0 12 -2 13 -9 1 -12 -19 -31 -5 -30 22 1 20 2 20 9 -3 8 -24 8 -24 9 -2z
m131 3 c0 -27 -19 -36 -37 -18 -18 18 -9 37 18 37 12 0 19 -7 19 -19z m23 -11
c-7 -28 -13 -25 -13 6 0 14 4 23 9 20 5 -3 7 -15 4 -26z m27 3 c0 -19 -3 -24
-10 -17 -6 6 -8 18 -4 27 9 24 14 21 14 -10z m31 20 c-11 -5 -11 -7 0 -14 12
-7 11 -9 -1 -9 -13 0 -13 -1 0 -10 13 -8 12 -10 -2 -10 -13 0 -18 8 -18 25 0
17 5 25 18 24 12 0 13 -2 3 -6z m59 -3 c-11 -7 -12 -10 -2 -10 8 0 12 -5 10
-11 -6 -19 -21 -14 -24 9 -3 16 1 22 14 22 14 0 15 -2 2 -10z m40 -10 c0 -11
-2 -20 -4 -20 -2 0 -6 9 -9 20 -3 11 -1 20 4 20 5 0 9 -9 9 -20z m100 10 c0
-5 -9 -14 -20 -20 -11 -6 -20 -8 -20 -4 0 3 -7 1 -15 -6 -18 -15 -35 -5 -35
20 0 15 8 18 45 18 25 0 45 -4 45 -8z m45 1 c-3 -5 -1 -12 5 -16 5 -3 10 1 10
11 0 13 3 14 14 5 11 -9 15 -9 19 1 3 7 6 0 6 -17 0 -20 -2 -26 -8 -16 -6 10
-13 11 -29 2 -11 -6 -23 -11 -25 -11 -7 0 -15 38 -9 44 9 10 24 7 17 -3z m106
-3 c0 -10 2 -10 6 0 5 13 43 17 43 4 0 -4 -9 -15 -20 -25 -11 -9 -20 -12 -20
-6 0 8 -4 8 -15 -1 -18 -15 -35 -5 -35 21 0 21 39 28 41 7z m101 -13 c3 -14 1
-25 -3 -25 -5 0 -9 11 -9 25 0 14 2 25 4 25 2 0 6 -11 8 -25z m95 17 c-10 -2
-16 -9 -14 -15 3 -7 10 -11 16 -9 6 1 11 -2 11 -8 0 -12 -10 -13 -30 0 -9 5
-19 5 -27 -1 -16 -14 -33 -3 -33 21 0 15 8 18 48 17 26 0 39 -3 29 -5z m51
-32 c-2 -5 -9 -6 -16 -1 -7 4 -10 15 -6 25 6 17 8 17 16 2 5 -9 8 -21 6 -26z
m24 15 c3 -14 1 -25 -3 -25 -5 0 -9 11 -9 25 0 14 2 25 4 25 2 0 6 -11 8 -25z
m118 14 c0 -5 -4 -7 -10 -4 -6 4 -7 -1 -3 -11 5 -14 8 -13 24 7 17 23 19 23
20 4 1 -17 2 -17 6 -2 2 9 9 17 15 17 5 0 7 -7 4 -16 -3 -9 -6 -19 -6 -24 0
-4 -15 -6 -32 -5 -18 2 -33 4 -33 5 0 1 -10 3 -22 4 -12 1 -19 -2 -16 -7 3 -5
0 -8 -8 -5 -8 3 -15 14 -17 26 -3 20 1 22 37 22 23 0 41 -5 41 -11z m128 -11
c-2 -17 -10 -23 -28 -23 -14 0 -28 4 -32 9 -12 18 5 36 34 36 25 0 29 -4 26
-22z m52 12 c-11 -7 -12 -10 -2 -10 8 0 12 -5 10 -11 -6 -19 -21 -14 -24 9 -3
16 1 22 14 22 14 0 15 -2 2 -10z m40 -10 c0 -11 -4 -20 -10 -20 -5 0 -10 9
-10 20 0 11 5 20 10 20 6 0 10 -9 10 -20z m35 -2 c6 19 14 22 56 22 40 0 49
-3 48 -17 0 -11 -3 -13 -6 -5 -2 6 -9 12 -14 12 -6 0 -8 -3 -6 -7 3 -5 -1 -14
-9 -21 -12 -11 -14 -9 -14 8 0 11 -5 20 -11 20 -5 0 -8 -3 -6 -7 7 -12 -16
-28 -38 -28 -14 0 -21 7 -22 25 l-2 25 9 -25 8 -25 7 23z"/>
<path d="M194 1229 c2 -57 7 -112 11 -121 5 -13 2 -18 -9 -18 -19 0 -20 -10
-3 -34 9 -12 23 -17 42 -14 35 4 42 25 44 130 1 64 -12 97 -25 64 -11 -30 -24
-5 -18 35 5 27 3 39 -5 39 -8 0 -10 -8 -6 -21 5 -16 3 -20 -6 -17 -8 3 -14 14
-14 25 0 12 -3 24 -7 29 -4 4 -6 -40 -4 -97z"/>
<path d="M1242 1344 c-19 -13 -22 -24 -20 -57 2 -33 9 -44 30 -56 25 -14 29
-14 55 5 40 30 43 75 7 103 -32 25 -42 26 -72 5z"/>
<path d="M1186 1078 c-22 -31 -20 -64 4 -88 41 -41 100 -13 100 48 0 17 -7 38
-16 46 -23 24 -70 20 -88 -6z"/>
<path d="M1400 1075 c0 -26 22 -33 49 -16 21 13 5 41 -24 41 -20 0 -25 -5 -25
-25z"/>
<path d="M2019 1076 c-36 -34 -59 -89 -33 -79 21 8 88 115 72 113 -2 0 -19
-16 -39 -34z"/>
<path d="M1886 1093 c-14 -14 -5 -81 12 -96 36 -33 62 -16 62 37 0 32 -56 76
-74 59z"/>
<path d="M1822 1042 c-23 -34 -23 -37 -6 -49 10 -7 23 -13 28 -13 6 0 2 7 -8
15 -16 12 -17 17 -6 30 7 8 16 12 21 9 11 -6 12 17 1 32 -4 7 -16 -2 -30 -24z"/>
<path d="M492 799 c2 -6 8 -10 13 -10 5 0 11 4 13 10 2 6 -4 11 -13 11 -9 0
-15 -5 -13 -11z"/>
<path d="M655 801 c-6 -11 9 -23 19 -14 9 9 7 23 -3 23 -6 0 -12 -4 -16 -9z"/>
<path d="M892 801 c2 -7 7 -12 11 -12 12 1 9 15 -3 20 -7 2 -11 -2 -8 -8z"/>
<path d="M1090 801 c0 -6 5 -13 10 -16 6 -3 10 1 10 9 0 9 -4 16 -10 16 -5 0
-10 -4 -10 -9z"/>
<path d="M1252 801 c2 -7 7 -12 11 -12 12 1 9 15 -3 20 -7 2 -11 -2 -8 -8z"/>
<path d="M1610 800 c0 -5 5 -10 10 -10 6 0 10 5 10 10 0 6 -4 10 -10 10 -5 0
-10 -4 -10 -10z"/>
</g>
</svg>
